<svg xmlns="http://www.w3.org/2000/svg" viewBox="0 0 100 100"><defs><linearGradient id="bkg-frame"><stop offset="0%" stop-color="olive"></stop><stop offset="100%" stop-color="red"></stop></linearGradient></defs><rect width="100" height="100" stroke="url(#bkg-frame)" stroke-width=".5" fill="aliceblue"></rect><circle cx="50%" cy="50%" r=".5" stroke="red" stroke-width=".2" fill="none"></circle><rect x="0" y="0" width="68" height="3" fill="#ffca28" transform="rotate(150, 52, 25.5) translate(18, 24)"></rect><rect x="0" y="0" width="61" height="2" fill="#ffebee" transform="rotate(150, 34.5, 15) translate(4, 14)"></rect><rect x="0" y="0" width="79" height="2" fill="#b2ebf2" transform="rotate(150, 48.5, 79) translate(9, 78)"></rect><rect x="0" y="0" width="58" height="2" fill="#1a237e" transform="rotate(150, 52, 20) translate(23, 19)"></rect><rect x="0" y="0" width="50" height="3" fill="#b9f6ca" transform="rotate(150, 26, 88.5) translate(1, 87)"></rect><rect x="0" y="0" width="48" height="1" fill="#e6ee9c" transform="rotate(150, 24, 38.5) translate(0, 38)"></rect><rect x="0" y="0" width="53" height="3" fill="#00acc1" transform="rotate(150, 68.5, 6.5) translate(42, 5)"></rect><rect x="0" y="0" width="41" height="1" fill="#01579b" transform="rotate(150, 43.5, 44.5) translate(23, 44)"></rect><rect x="0" y="0" width="64" height="1" fill="#66bb6a" transform="rotate(150, 48, 43.5) translate(16, 43)"></rect><rect x="0" y="0" width="81" height="2" fill="#b2ebf2" transform="rotate(150, 40.5, 10) translate(0, 9)"></rect><rect x="0" y="0" width="92" height="2" fill="#5c6bc0" transform="rotate(150, 54, 41) translate(8, 40)"></rect></svg>